# xmcd
# Track frame offsets:
# 150
# 13503
# 26401
# 39569
# 51692
# 67678
# 79971
# 93633
# 113873
# 128663
# 146629
# 159556
# 172441
# 183198
# 194978
# 203293
# 218234
# 229307
# 244226
# 255273
#
# Disc length: 3664 seconds
# Revision: 0
# Processed by: cddbd v1.5.2PL0 Copyright (c) Steve Scherf et al.
# Submitted via: VisiTrax 2.11.3.279 - For more info visit www.synapsa.com
#
DISCID=210e4e14
DTITLE=Various Artist - Country Legends [CD1]
DYEAR=2010
DGENRE=Country
TTITLE0=Tammy Wynette - D.I.V.O.R.C.E
TTITLE1=Willie Nelson - Crazy
TTITLE2=Crystal Gayle - Talking in your sleep
TTITLE3=Glen Campbell - Galveston
TTITLE4=Kenny Rogers and Dottie West - Just The Way You Are
TTITLE5=Charlie Rich - The Most Beautiful Girl In The World
TTITLE6=John Denver - Annie's Song
TTITLE7=Steve Wariner - Two Teardrops
TTITLE8=Jean Shepard - Sing Me An Old Fashioned Song
TTITLE9=Dottie West - Hey Mr Dream Maker
TTITLE10=Lynn Andersen - Rose Garden
TTITLE11=Billie Jo Spears - 57 Chevrolet
TTITLE12=Lacy J Dalton and Eddie Rabbit - Bye Bye Love
TTITLE13=Tennessee Ernie Ford - Sixteen tons
TTITLE14=Nitty Gritty Dirt Band - Hey Good Lookin'
TTITLE15=Asleep At The Wheel - Lay Down Sally
TTITLE16=Chris Ledoux - So You Want To Be A Cowboy
TTITLE17=Deana Carter - Brand New Key
TTITLE18=Guy Mitchell - Singing the Blues
TTITLE19=Marty Robbins - El Paso
EXTD=BC 5099994963325  \nL: EMI Gold - 5099994963325   \nP: 2010 EMI Record
EXTD=s Ltd
EXTT0=
EXTT1=
EXTT2=
EXTT3=
EXTT4=
EXTT5=
EXTT6=
EXTT7=
EXTT8=
EXTT9=
EXTT10=
EXTT11=
EXTT12=
EXTT13=
EXTT14=
EXTT15=
EXTT16=
EXTT17=
EXTT18=
EXTT19=
PLAYORDER=
